<svg xmlns="http://www.w3.org/2000/svg" width="100" height="100.392" viewBox="0 0 100 100.392">
  <g id="add-friend" transform="translate(-1)">
    <path id="Path_1" data-name="Path 1" d="M132.783,45.566a22.783,22.783,0,1,1,22.783-22.783A22.809,22.809,0,0,1,132.783,45.566Z" transform="translate(-87.657)" fill="#fff"/>
    <g id="Group_2" data-name="Group 2" transform="translate(1 41.471)">
      <g id="Group_1" data-name="Group 1" transform="translate(0 4.935)">
        <path id="Path_2" data-name="Path 2" d="M53.929,252.814a26.392,26.392,0,0,1,3.863-13.781,28.512,28.512,0,0,1-28.648-1.906A44.269,44.269,0,0,0,1,278.346v9.82a2.943,2.943,0,0,0,2.941,2.946H86.275a2.943,2.943,0,0,0,2.941-2.946v-9.82c0-.177,0-.354-.007-.532a26.458,26.458,0,0,1-35.279-25Z" transform="translate(-1 -237.126)" fill="#fff"/>
      </g>
      <path id="Path_3" data-name="Path 3" d="M321.622,212a20.622,20.622,0,1,0,20.622,20.622A20.646,20.646,0,0,0,321.622,212Zm5.892,23.568h-2.946v2.946a2.946,2.946,0,0,1-5.892,0v-2.946H315.73a2.946,2.946,0,0,1,0-5.892h2.946V226.73a2.946,2.946,0,1,1,5.892,0v2.946h2.946a2.946,2.946,0,0,1,0,5.892Z" transform="translate(-242.245 -212)" fill="#fff"/>
    </g>
  </g>
</svg>
