<svg id="blockchain_1_" data-name="blockchain (1)" xmlns="http://www.w3.org/2000/svg" width="100" height="100" viewBox="0 0 100 100">
  <g id="Group_4" data-name="Group 4" transform="translate(7.157 43.82)">
    <g id="Group_3" data-name="Group 3">
      <path id="Path_4" data-name="Path 4" d="M47.681,210.344,40.524,217.5,36.7,213.678l-2.357,2.357,5,5a1.666,1.666,0,0,0,2.357,0l8.336-8.336Z" transform="translate(-34.344 -210.344)" fill="#fff"/>
    </g>
  </g>
  <g id="Group_6" data-name="Group 6" transform="translate(77.148 43.82)">
    <g id="Group_5" data-name="Group 5">
      <path id="Path_5" data-name="Path 5" d="M383.681,210.344l-7.157,7.157-3.823-3.823-2.357,2.357,5,5a1.666,1.666,0,0,0,2.357,0l8.336-8.336Z" transform="translate(-370.344 -210.344)" fill="#fff"/>
    </g>
  </g>
  <g id="Group_8" data-name="Group 8" transform="translate(7.157 8.824)">
    <g id="Group_7" data-name="Group 7">
      <path id="Path_6" data-name="Path 6" d="M47.681,42.344,40.524,49.5,36.7,45.678l-2.357,2.357,5,5a1.666,1.666,0,0,0,2.357,0L50.039,44.7Z" transform="translate(-34.344 -42.344)" fill="#fff"/>
    </g>
  </g>
  <g id="Group_10" data-name="Group 10">
    <g id="Group_9" data-name="Group 9">
      <path id="Path_7" data-name="Path 7" d="M66.667,58.333V51.667H70.1a15,15,0,1,0,0-3.333H66.667V41.667a1.685,1.685,0,0,0-.065-.448,1.3,1.3,0,0,0-.053-.133,1.629,1.629,0,0,0-.127-.273,1.53,1.53,0,0,0-.1-.135,1.849,1.849,0,0,0-.185-.212c-.042-.04-.087-.077-.133-.113a1.2,1.2,0,0,0-.1-.083c-.045-.028-.1-.043-.14-.068s-.057-.042-.09-.057l-2.4-1.065,12.37-12.37a15.038,15.038,0,1,0-2.357-2.357L60.017,37.627l-8.35-3.71V29.9a15,15,0,1,0-3.333,0v4.015l-8.35,3.71L26.708,24.352a15.038,15.038,0,1,0-2.357,2.357l12.37,12.37-2.4,1.065a1.107,1.107,0,0,0-.093.06,1.5,1.5,0,0,0-.138.067c-.037.023-.065.057-.1.083a1.449,1.449,0,0,0-.133.113,1.6,1.6,0,0,0-.185.212,1.534,1.534,0,0,0-.1.135,1.628,1.628,0,0,0-.127.273c-.017.045-.04.087-.053.133a1.731,1.731,0,0,0-.063.447v6.667H29.9a15,15,0,1,0,0,3.333h3.432v6.667a1.667,1.667,0,0,0,.99,1.523l2.4,1.065-12.37,12.37a15.038,15.038,0,1,0,2.357,2.357L39.983,62.373l8.35,3.71V70.1a15,15,0,1,0,3.333,0V66.083l8.35-3.71L73.292,75.648a15.038,15.038,0,1,0,2.357-2.357l-12.37-12.37,2.4-1.065A1.667,1.667,0,0,0,66.667,58.333ZM85,38.333A11.667,11.667,0,1,1,73.333,50,11.681,11.681,0,0,1,85,38.333Zm0-35A11.667,11.667,0,1,1,73.333,15,11.681,11.681,0,0,1,85,3.333ZM15,26.667A11.667,11.667,0,1,1,26.667,15,11.681,11.681,0,0,1,15,26.667Zm0,35A11.667,11.667,0,1,1,26.667,50,11.681,11.681,0,0,1,15,61.667Zm0,35A11.667,11.667,0,1,1,26.667,85,11.681,11.681,0,0,1,15,96.667ZM85,73.333A11.667,11.667,0,1,1,73.333,85,11.681,11.681,0,0,1,85,73.333ZM38.333,15A11.667,11.667,0,1,1,50,26.667,11.681,11.681,0,0,1,38.333,15ZM36.667,57.252V44.232l11.667,5.185V62.435ZM61.667,85A11.667,11.667,0,1,1,50,73.333,11.681,11.681,0,0,1,61.667,85ZM50,46.508,46.368,44.9,39.1,41.667,50,36.825l10.9,4.842L53.632,44.9ZM63.333,57.252,51.667,62.435V49.417l11.667-5.185Z" fill="#fff"/>
    </g>
  </g>
  <g id="Group_12" data-name="Group 12" transform="translate(77.148 8.824)">
    <g id="Group_11" data-name="Group 11">
      <path id="Path_8" data-name="Path 8" d="M383.681,42.344,376.524,49.5,372.7,45.678l-2.357,2.357,5,5a1.666,1.666,0,0,0,2.357,0l8.336-8.336Z" transform="translate(-370.344 -42.344)" fill="#fff"/>
    </g>
  </g>
  <g id="Group_14" data-name="Group 14" transform="translate(42.153 8.824)">
    <g id="Group_13" data-name="Group 13">
      <path id="Path_9" data-name="Path 9" d="M215.681,42.344,208.524,49.5,204.7,45.678l-2.357,2.357,5,5a1.666,1.666,0,0,0,2.357,0l8.336-8.336Z" transform="translate(-202.344 -42.344)" fill="#fff"/>
    </g>
  </g>
  <g id="Group_16" data-name="Group 16" transform="translate(7.157 78.815)">
    <g id="Group_15" data-name="Group 15">
      <path id="Path_10" data-name="Path 10" d="M47.681,378.344,40.524,385.5,36.7,381.678l-2.357,2.357,5,5a1.666,1.666,0,0,0,2.357,0l8.336-8.336Z" transform="translate(-34.344 -378.344)" fill="#fff"/>
    </g>
  </g>
  <g id="Group_18" data-name="Group 18" transform="translate(77.148 78.815)">
    <g id="Group_17" data-name="Group 17">
      <path id="Path_11" data-name="Path 11" d="M383.681,378.344l-7.157,7.157-3.823-3.823-2.357,2.357,5,5a1.666,1.666,0,0,0,2.357,0l8.336-8.336Z" transform="translate(-370.344 -378.344)" fill="#fff"/>
    </g>
  </g>
  <g id="Group_20" data-name="Group 20" transform="translate(42.153 78.815)">
    <g id="Group_19" data-name="Group 19">
      <path id="Path_12" data-name="Path 12" d="M215.681,378.344l-7.157,7.157-3.823-3.823-2.357,2.357,5,5a1.666,1.666,0,0,0,2.357,0l8.336-8.336Z" transform="translate(-202.344 -378.344)" fill="#fff"/>
    </g>
  </g>
</svg>
