<svg id="box_1_" data-name="box (1)" xmlns="http://www.w3.org/2000/svg" width="100" height="99.262" viewBox="0 0 100 99.262">
  <path id="Path_31" data-name="Path 31" fill="none"/>
  <path id="Path_32" data-name="Path 32" fill="none"/>
  <path id="Path_33" data-name="Path 33" d="M46.277,158.862,1.355,139.947a.977.977,0,0,0-1.355.9v50.566a3.125,3.125,0,0,0,1.964,2.9l43.571,17.428a.977.977,0,0,0,1.339-.907V159.762A.977.977,0,0,0,46.277,158.862Z" transform="translate(0 -112.552)" fill="#075ef0"/>
  <path id="Path_34" data-name="Path 34" d="M73.461,43.974l43.421-18.282a.977.977,0,0,0,.034-1.785L74.4,4.067a3.125,3.125,0,0,0-2.643,0L29.249,23.906a.977.977,0,0,0,.034,1.785L72.7,43.974a.975.975,0,0,0,.758,0Z" transform="translate(-23.083 -3.037)" fill="#075ef0"/>
  <path id="Path_35" data-name="Path 35" d="M272,159.762v51.075a.977.977,0,0,0,1.339.907l43.571-17.428a3.125,3.125,0,0,0,1.964-2.9V140.847a.977.977,0,0,0-1.355-.9L272.6,158.862A.977.977,0,0,0,272,159.762Z" transform="translate(-218.875 -112.552)" fill="#075ef0"/>
</svg>
