<svg id="box" xmlns="http://www.w3.org/2000/svg" width="512" height="508.226" viewBox="0 0 512 508.226">
  <path id="Path_51" data-name="Path 51" fill="none" stroke="#000" stroke-linecap="round" stroke-linejoin="round" stroke-miterlimit="10" stroke-width="32"/>
  <path id="Path_52" data-name="Path 52" fill="none" stroke="#000" stroke-linecap="round" stroke-linejoin="round" stroke-miterlimit="10" stroke-width="32"/>
  <path id="Path_53" data-name="Path 53" d="M236.94,237.109l-230-96.842A5,5,0,0,0,0,144.875v258.9a16,16,0,0,0,10.058,14.855l223.085,89.234A5,5,0,0,0,240,503.221v-261.5a5,5,0,0,0-3.06-4.608Z" fill="#fff"/>
  <path id="Path_54" data-name="Path 54" d="M257.94,209.6,480.255,115.99a5,5,0,0,0,.174-9.139L262.766,5.275a16,16,0,0,0-13.532,0L31.571,106.851a5,5,0,0,0,.174,9.139L254.06,209.6a4.994,4.994,0,0,0,3.88,0Z" fill="#fff"/>
  <path id="Path_55" data-name="Path 55" d="M272,241.717v261.5a5,5,0,0,0,6.857,4.642l223.085-89.234A16,16,0,0,0,512,403.774v-258.9a5,5,0,0,0-6.94-4.608l-230,96.842a5,5,0,0,0-3.06,4.608Z" fill="#fff"/>
</svg>
