<svg id="box_1_" data-name="box (1)" xmlns="http://www.w3.org/2000/svg" width="100" height="99.263" viewBox="0 0 100 99.263">
  <path id="Path_31" data-name="Path 31" fill="#fff"/>
  <path id="Path_32" data-name="Path 32" fill="#fff"/>
  <path id="Path_33" data-name="Path 33" d="M46.288,158.866,1.356,139.947a.977.977,0,0,0-1.356.9v50.578a3.125,3.125,0,0,0,1.965,2.9L45.546,211.76a.977.977,0,0,0,1.34-.907V159.766A.977.977,0,0,0,46.288,158.866Z" transform="translate(0 -112.568)" fill="#fff"/>
  <path id="Exclusion_1" data-name="Exclusion 1" d="M44.4,40.286a.969.969,0,0,1-.379-.077L.6,21.922a.977.977,0,0,1-.034-1.785L43.075.293a3.125,3.125,0,0,1,2.643,0L58.392,6.209,42.249,22.357l-7.907-7.909a3.363,3.363,0,0,0-4.758,0L28,16.034a3.364,3.364,0,0,0,0,4.758l12.664,12.67a2.242,2.242,0,0,0,3.172,0L67.042,10.247l21.186,9.89a.977.977,0,0,1-.034,1.785L44.775,40.209A.969.969,0,0,1,44.4,40.286ZM67.042,10.247l-8.65-4.038L63.614.986a3.363,3.363,0,0,1,4.758,0l1.586,1.586a3.364,3.364,0,0,1,0,4.759l-2.915,2.916Z" transform="translate(5.604 0.737)" fill="#fff"/>
  <path id="Path_35" data-name="Path 35" d="M272,159.766v51.087a.977.977,0,0,0,1.34.907l43.581-17.433a3.126,3.126,0,0,0,1.965-2.9V140.848a.977.977,0,0,0-1.356-.9L272.6,158.866A.977.977,0,0,0,272,159.766Z" transform="translate(-218.886 -112.568)" fill="#fff"/>
</svg>
