<svg xmlns="http://www.w3.org/2000/svg" width="72.274" height="100.012" viewBox="0 0 72.274 100.012">
  <g id="document" transform="translate(-137 -467.988)">
    <g id="Group_22" data-name="Group 22">
      <g id="Group_21" data-name="Group 21" transform="translate(66 467.988)">
        <path id="Path_36" data-name="Path 36" d="M140.344,0H84.9a2.93,2.93,0,0,0-2.072.858L71.858,11.826A2.929,2.929,0,0,0,71,13.9V97.082a2.93,2.93,0,0,0,2.93,2.93h66.414a2.93,2.93,0,0,0,2.93-2.93V2.93A2.93,2.93,0,0,0,140.344,0ZM97.421,25.344c0-5.4,4-7.995,8.5-8.632V15.521c0-.6.68-1.148,1.616-1.148.808,0,1.616.553,1.616,1.148v1.063c2.636.085,7.612.765,7.612,3.7,0,1.148-.765,3.487-2.636,3.487-1.4,0-2.211-1.361-4.975-1.573v6.209c3.87,1.446,8.377,3.445,8.377,9.185,0,5.273-3.4,8.462-8.377,9.27v1.233c0,.6-.808,1.148-1.616,1.148-.935,0-1.616-.553-1.616-1.148V47.031c-5.1-.17-9.27-2.807-9.27-5.528,0-1.446,1.276-3.572,2.892-3.572,1.786,0,3.232,2.509,6.379,3.062V34.1C102.014,32.615,97.421,30.787,97.421,25.344Zm31.2,60.6H85.65a2.93,2.93,0,0,1,0-5.86h42.974a2.93,2.93,0,1,1,0,5.86Zm0-11.72H85.65a2.93,2.93,0,0,1,0-5.86h42.974a2.93,2.93,0,1,1,0,5.86Zm0-11.72H113a2.93,2.93,0,1,1,0-5.86h15.627a2.93,2.93,0,1,1,0,5.86Z" transform="translate(0)" fill="#fff"/>
        <path id="Path_37" data-name="Path 37" d="M266.734,183.456c0-1.389-1.052-2.273-2.568-2.989v5.641C265.6,185.771,266.734,184.971,266.734,183.456Z" transform="translate(-155.42 -145.194)" fill="#fff"/>
        <path id="Path_38" data-name="Path 38" d="M240.736,114.287c-1.894.379-2.694,1.347-2.694,2.357,0,1.221,1.095,1.979,2.694,2.652Z" transform="translate(-134.4 -91.951)" fill="#fff"/>
      </g>
    </g>
  </g>
</svg>
